<svg width="16" height="16" viewBox="0 0 16 16" fill="none" xmlns="http://www.w3.org/2000/svg">
<path d="M0.916667 0.5C0.80616 0.5 0.700179 0.543899 0.622039 0.622039C0.543899 0.700179 0.5 0.80616 0.5 0.916667V14.6667C0.5 15.1269 0.873083 15.5 1.33333 15.5C1.79358 15.5 2.16667 15.1269 2.16667 14.6667V8.9615H8.58517C8.66022 8.96151 8.73389 8.9818 8.79837 9.02021C8.86285 9.05863 8.91576 9.11375 8.9515 9.17975L9.5485 10.2817C9.58424 10.3478 9.63714 10.4029 9.70162 10.4413C9.76611 10.4797 9.83977 10.5 9.91483 10.5H15.0833C15.1938 10.5 15.2998 10.4561 15.378 10.378C15.4561 10.2998 15.5 10.1938 15.5 10.0833V2.45508C15.5 2.34458 15.4561 2.2386 15.378 2.16046C15.2998 2.08232 15.1938 2.03842 15.0833 2.03842H9.91483C9.83978 2.03841 9.76613 2.01814 9.70165 1.97974C9.63717 1.94134 9.58425 1.88624 9.5485 1.82025L8.9515 0.71825C8.91576 0.652249 8.86285 0.597128 8.79837 0.558712C8.73389 0.520295 8.66022 0.50001 8.58517 0.5H0.916667Z" fill="#595959"/>
</svg>
