<svg width="16" height="20" viewBox="0 0 16 20" fill="none" xmlns="http://www.w3.org/2000/svg">
<path d="M7.92843 0C3.72439 0 0.324219 3.13 0.324219 7C0.324219 11.5229 5.96806 18.0927 7.53127 19.8256C7.74137 20.0585 8.11549 20.0585 8.32559 19.8256C9.88879 18.0927 15.5326 11.5229 15.5326 7C15.5326 3.13 12.1325 0 7.92843 0ZM7.92843 9.5C6.42931 9.5 5.21264 8.38 5.21264 7C5.21264 5.62 6.42931 4.5 7.92843 4.5C9.42754 4.5 10.6442 5.62 10.6442 7C10.6442 8.38 9.42754 9.5 7.92843 9.5Z" fill="black"/>
</svg>
