<svg width="21" height="20" viewBox="0 0 21 20" fill="none" xmlns="http://www.w3.org/2000/svg">
<path d="M6.70674 7.37418C6.38133 7.6996 5.85366 7.6996 5.52824 7.37418C5.20283 7.04868 5.20283 6.52102 5.52824 6.1956L9.91958 1.80418C10.016 1.70777 10.1415 1.66043 10.2621 1.6636C10.3827 1.66043 10.5082 1.70777 10.6046 1.80418L14.9961 6.1956C15.3215 6.52102 15.3215 7.04868 14.9961 7.3741C14.6706 7.6996 14.143 7.6996 13.8175 7.3741L11.0737 4.63027V13.3334C11.0737 13.7936 10.7007 14.1667 10.2404 14.1667C9.78016 14.1667 9.40708 13.7936 9.40708 13.3334V4.67377L6.70674 7.37418Z" fill="#595959"/>
<path d="M3.57324 11.2485C3.57324 11.1379 3.61714 11.032 3.69528 10.9538C3.77342 10.8757 3.8794 10.8318 3.98991 10.8318H6.07324C6.53349 10.8318 6.90658 11.205 6.90658 11.6651C6.90658 12.1254 6.53349 12.4985 6.07324 12.4985H5.23991V16.6651H15.2399V12.4985H14.4066C13.9463 12.4985 13.5732 12.1254 13.5732 11.6651C13.5732 11.205 13.9463 10.8318 14.4066 10.8318H16.4899C16.6004 10.8318 16.7064 10.8757 16.7845 10.9538C16.8627 11.032 16.9066 11.1379 16.9066 11.2485V17.9151C16.9066 18.0256 16.8627 18.1316 16.7845 18.2097C16.7064 18.2879 16.6004 18.3318 16.4899 18.3318H3.98991C3.8794 18.3318 3.77342 18.2879 3.69528 18.2097C3.61714 18.1316 3.57324 18.0256 3.57324 17.9151V11.2485Z" fill="#595959"/>
</svg>
