<svg width="22" height="22" viewBox="0 0 22 22" fill="none" xmlns="http://www.w3.org/2000/svg">
<path fill-rule="evenodd" clip-rule="evenodd" d="M11 15.2496L15.1573 17.7588L14.054 13.0295L17.7288 9.846L12.8949 9.4359L11 4.9649L9.10511 9.4359L4.27111 9.846L7.94601 13.0295L6.84271 17.7588L11 15.2496ZM4.87551 21.3945C4.42651 21.6655 3.87271 21.263 3.99191 20.7523L5.61711 13.7854L0.205508 9.0973C-0.190892 8.7539 0.0210078 8.1028 0.543508 8.0585L7.66831 7.454L10.4542 0.881001C10.6585 0.399001 11.3415 0.399001 11.5458 0.881001L14.3317 7.454L21.4565 8.0585C21.979 8.1028 22.1909 8.7539 21.7945 9.0973L16.3829 13.7854L18.0081 20.7523C18.1273 21.263 17.5734 21.6655 17.1245 21.3946L11 17.6981L4.87551 21.3945Z" fill="#003F72"/>
</svg>
