<svg width="416" height="121" viewBox="0 0 416 121" fill="none" xmlns="http://www.w3.org/2000/svg">
<path d="M9.17712 154.687C-33.7781 -0.969421 125.344 -16.8133 240.177 30.1867C307.177 54.3582 351.177 -20.8133 434.177 9.18666C517.177 39.1867 417.678 133.687 544.678 182.187C671.678 230.687 609.677 447.687 498.677 450.187C387.677 452.687 418.177 489.187 307.177 572.687C196.177 656.187 9.17738 540.187 55.6773 417.687C102.177 295.187 55.6768 323.187 9.17712 154.687Z" stroke="#F8FAFB" stroke-width="3"/>
<path d="M30.8919 164.943C-8.60886 22.0895 138.158 5.51172 244.249 49.1669C306.712 71.9907 348.294 3.07989 424.794 30.7314C503.001 59.0014 411.534 145.438 528.219 190.714C645.171 236.246 589.522 437.293 485.171 439.565C381.431 441.838 410.005 476.395 306.976 552.913C203.947 629.432 31.5434 522.94 73.8161 408.846C116.089 296.457 73.9147 320.369 30.8919 164.943Z" stroke="#F8FAFB" stroke-width="3"/>
<path d="M52.6067 175.199C16.5604 45.1489 150.972 27.8372 248.32 68.1476C306.247 89.6236 345.411 26.9735 415.411 52.2766C488.825 78.8166 405.391 157.191 511.761 199.241C618.665 241.806 569.366 426.899 471.664 428.945C375.184 430.99 401.833 463.604 306.775 533.14C211.717 602.677 53.9095 505.694 91.9549 400.006C130 297.728 92.1528 317.552 52.6067 175.199Z" stroke="#F8FAFB" stroke-width="3"/>
<path d="M74.3227 185.457C41.7309 68.2098 163.787 50.1642 252.393 87.1297C305.782 107.258 342.53 50.8687 406.03 73.8234C474.65 98.6334 399.249 168.944 495.304 207.77C592.159 247.367 549.211 416.507 458.158 418.325C368.939 420.144 393.661 450.814 306.575 513.369C219.488 575.924 76.2768 488.449 110.095 391.168C143.913 299.001 110.392 314.737 74.3227 185.457Z" stroke="#F8FAFB" stroke-width="3"/>
<path d="M96.0379 195.715C66.9005 91.2706 176.602 72.491 256.465 106.112C305.317 124.892 339.647 74.7637 396.647 95.3699C460.474 118.45 393.107 180.698 478.846 216.299C565.653 252.928 529.056 406.115 444.652 407.706C362.692 409.297 385.49 438.024 306.374 493.597C227.259 549.17 98.6432 471.204 128.234 382.329C157.825 300.273 128.63 311.922 96.0379 195.715Z" stroke="#F8FAFB" stroke-width="3"/>
<path d="M117.753 206.493C92.0704 114.851 189.416 95.3375 260.537 125.613C304.853 143.046 336.765 99.1784 387.265 117.436C446.299 138.786 386.964 192.971 462.389 225.348C539.147 259.009 508.901 396.243 431.146 397.606C356.446 398.97 377.318 425.754 306.174 474.345C235.03 522.937 121.01 454.479 146.373 374.01C171.737 302.065 146.869 309.626 117.753 206.493Z" stroke="#F8FAFB" stroke-width="3"/>
</svg>
