<svg width="537" height="204" viewBox="0 0 537 204" fill="none" xmlns="http://www.w3.org/2000/svg">
<path d="M-70.8229 154.687C-113.778 -0.969421 45.344 -16.8133 160.177 30.1867C227.177 54.3582 271.177 -20.8133 354.177 9.18666C437.177 39.1867 337.678 133.687 464.678 182.187C591.678 230.687 529.677 447.687 418.677 450.187C307.677 452.687 338.177 489.187 227.177 572.687C116.177 656.187 -70.8226 540.187 -24.3227 417.687C22.1773 295.187 -24.3232 323.187 -70.8229 154.687Z" stroke="#F8FAFB" stroke-width="3"/>
<path d="M-49.1081 164.943C-88.6089 22.0895 58.158 5.51172 164.249 49.1669C226.712 71.9907 268.294 3.07989 344.794 30.7314C423.001 59.0014 331.534 145.438 448.219 190.714C565.171 236.246 509.522 437.293 405.171 439.565C301.431 441.838 330.005 476.395 226.976 552.913C123.947 629.432 -48.4566 522.94 -6.18392 408.846C36.0888 296.457 -6.08526 320.369 -49.1081 164.943Z" stroke="#F8FAFB" stroke-width="3"/>
<path d="M-27.3928 175.199C-63.4391 45.1489 70.9725 27.8372 168.321 68.1476C226.247 89.6236 265.412 26.9735 335.412 52.2766C408.826 78.8166 325.392 157.191 431.762 199.241C538.665 241.806 489.366 426.899 391.664 428.945C295.185 430.99 321.833 463.604 226.775 533.14C131.718 602.677 -26.09 505.694 11.9554 400.006C50.0008 297.728 12.1533 317.552 -27.3928 175.199Z" stroke="#F8FAFB" stroke-width="3"/>
<path d="M-5.6773 185.457C-38.2691 68.2098 83.7872 50.1642 172.393 87.1297C225.782 107.258 262.53 50.8687 326.03 73.8234C394.65 98.6334 319.249 168.944 415.304 207.77C512.159 247.367 469.211 416.507 378.158 418.325C288.939 420.144 313.661 450.814 226.575 513.369C139.488 575.924 -3.72324 488.449 30.0949 391.168C63.9131 299.001 30.3919 314.737 -5.6773 185.457Z" stroke="#F8FAFB" stroke-width="3"/>
<path d="M16.0379 195.715C-13.0995 91.2706 96.6015 72.491 176.465 106.112C225.317 124.892 259.647 74.7637 316.647 95.3699C380.474 118.45 313.107 180.698 398.846 216.299C485.653 252.928 449.056 406.115 364.652 407.706C282.692 409.297 305.49 438.024 226.374 493.597C147.259 549.17 18.6432 471.204 48.2341 382.329C77.825 300.273 48.6303 311.922 16.0379 195.715Z" stroke="#F8FAFB" stroke-width="3"/>
<path d="M37.7533 206.493C12.0704 114.851 109.416 95.3375 180.537 125.613C224.853 143.046 256.765 99.1784 307.265 117.436C366.299 138.786 306.964 192.971 382.389 225.348C459.147 259.009 428.901 396.243 351.146 397.606C276.446 398.97 297.318 425.754 226.174 474.345C155.03 522.937 41.0099 454.479 66.3735 374.01C91.7371 302.065 66.8689 309.626 37.7533 206.493Z" stroke="#F8FAFB" stroke-width="3"/>
<path d="M59.4695 217.886C37.2411 139.047 122.232 118.799 184.61 145.731C224.389 161.816 253.883 124.209 297.883 140.118C352.124 159.738 300.823 205.86 365.932 235.012C432.642 265.705 408.747 386.986 337.641 388.122C270.201 389.258 289.147 414.099 225.974 455.709C162.801 497.318 63.3774 438.369 84.5138 366.306C105.65 304.473 85.1083 307.945 59.4695 217.886Z" stroke="#F8FAFB" stroke-width="3"/>
<path d="M81.1863 229.313C62.4123 163.276 135.048 142.295 188.684 165.881C223.925 180.619 251.002 149.272 288.502 162.833C337.95 180.723 294.681 218.782 349.476 244.709C406.138 272.435 388.593 377.762 324.136 378.671C263.957 379.58 280.977 402.477 225.775 437.106C170.573 471.734 85.7455 422.293 102.655 358.636C119.564 306.914 103.348 306.299 81.1863 229.313Z" stroke="#F8FAFB" stroke-width="3"/>
<path d="M102.904 240.788C87.5839 187.555 147.864 165.839 192.758 186.081C223.462 199.471 248.121 174.385 279.121 185.597C323.776 201.757 288.541 231.753 333.02 254.456C379.633 279.213 368.44 368.588 310.632 369.27C257.712 369.952 272.807 390.905 225.576 418.552C178.345 446.198 108.114 406.266 120.796 351.016C133.478 309.404 121.589 304.701 102.904 240.788Z" stroke="#F8FAFB" stroke-width="3"/>
<path d="M124.622 252.338C112.757 211.907 160.682 189.458 196.833 206.354C223.001 218.396 245.242 199.571 269.742 208.435C309.604 222.865 282.402 244.798 316.566 264.276C353.131 286.066 348.288 359.487 297.129 359.942C251.47 360.396 264.638 379.407 225.379 400.071C186.119 420.736 130.484 390.312 138.938 343.468C147.393 311.968 139.831 303.177 124.622 252.338Z" stroke="#F8FAFB" stroke-width="3"/>
</svg>
