<svg width="20" height="18" viewBox="0 0 20 18" fill="none" xmlns="http://www.w3.org/2000/svg">
<path fill-rule="evenodd" clip-rule="evenodd" d="M5.1901 3.3487C5.7071 1.9505 6.8163 0.839404 8.2134 0.319903C8.78507 0.107634 9.39009 -0.000704419 9.9999 3.44647e-06C10.6282 3.44647e-06 11.2301 0.113003 11.7864 0.319903C13.1834 0.839303 14.2927 1.9505 14.8096 3.3487C14.8876 3.5597 14.9521 3.7771 15.0021 4H18C19.1046 4 20 4.8954 20 6V16C20 17.1046 19.1046 18 18 18H2C0.8954 18 0 17.1046 0 16V6C0 4.8954 0.8954 4 2 4H4.9977C5.0477 3.777 5.1121 3.5596 5.1901 3.3487ZM2 10V16H18V10H12C12 11.1046 11.1046 12 10 12C8.8954 12 8 11.1046 8 10H2ZM18 8H2V6H18V8ZM8.1795 2.5844C8.70995 2.20341 9.34681 1.99896 9.9999 2C10.679 2 11.3076 2.2165 11.8203 2.5844C12.3113 2.9366 12.696 3.4276 12.9172 4H7.0826C7.30285 3.43154 7.68403 2.93961 8.1795 2.5844Z" fill="black"/>
</svg>
